<svg width="23" height="18" viewBox="0 0 23 18" fill="none" xmlns="http://www.w3.org/2000/svg">
<path d="M11.1951 4.66967L3.83364 10.7715V17.3571C3.83364 17.5276 3.90094 17.6911 4.02075 17.8117C4.14055 17.9323 4.30305 18 4.47248 18L8.94675 17.9883C9.11563 17.9875 9.2773 17.9194 9.39641 17.7989C9.51553 17.6784 9.5824 17.5154 9.58239 17.3454V13.4995C9.58239 13.329 9.6497 13.1655 9.76951 13.0449C9.88931 12.9243 10.0518 12.8566 10.2212 12.8566H12.7766C12.946 12.8566 13.1085 12.9243 13.2283 13.0449C13.3481 13.1655 13.4154 13.329 13.4154 13.4995V17.3426C13.4152 17.4272 13.4315 17.511 13.4635 17.5893C13.4955 17.6675 13.5425 17.7386 13.6018 17.7985C13.6612 17.8584 13.7317 17.906 13.8093 17.9384C13.887 17.9708 13.9702 17.9875 14.0543 17.9875L18.5269 18C18.6964 18 18.8589 17.9323 18.9787 17.8117C19.0985 17.6911 19.1658 17.5276 19.1658 17.3571V10.7671L11.806 4.66967C11.7194 4.59948 11.6116 4.56121 11.5005 4.56121C11.3894 4.56121 11.2816 4.59948 11.1951 4.66967ZM22.8231 8.81697L19.4852 6.04795V0.482197C19.4852 0.35431 19.4347 0.231662 19.3449 0.141232C19.255 0.0508028 19.1332 0 19.0061 0H16.7701C16.6431 0 16.5212 0.0508028 16.4313 0.141232C16.3415 0.231662 16.291 0.35431 16.291 0.482197V3.39989L12.7163 0.440004C12.3733 0.155902 11.9428 0.000567925 11.4985 0.000567925C11.0542 0.000567925 10.6238 0.155902 10.2807 0.440004L0.173884 8.81697C0.125367 8.85732 0.0852268 8.90691 0.0557571 8.96288C0.0262874 9.01886 0.00806566 9.08013 0.00213299 9.14319C-0.00379968 9.20626 0.00267301 9.26988 0.0211812 9.33043C0.0396894 9.39097 0.0698704 9.44726 0.11 9.49606L1.12815 10.7417C1.16817 10.7907 1.2174 10.8313 1.27301 10.8611C1.32862 10.8909 1.38952 10.9093 1.45224 10.9154C1.51495 10.9215 1.57824 10.9151 1.63849 10.8965C1.69873 10.878 1.75475 10.8476 1.80332 10.8072L11.1951 3.02217C11.2816 2.95198 11.3894 2.9137 11.5005 2.9137C11.6116 2.9137 11.7194 2.95198 11.806 3.02217L21.1981 10.8072C21.2466 10.8476 21.3025 10.878 21.3627 10.8966C21.4228 10.9152 21.4861 10.9218 21.5487 10.9158C21.6114 10.9098 21.6723 10.8915 21.7279 10.8618C21.7835 10.8322 21.8328 10.7918 21.8729 10.7429L22.891 9.49726C22.9311 9.44818 22.9612 9.39161 22.9795 9.3308C22.9977 9.26998 23.0039 9.20613 22.9976 9.14291C22.9913 9.0797 22.9726 9.01836 22.9427 8.96242C22.9128 8.90648 22.8721 8.85705 22.8231 8.81697Z" fill="#2D5A27"/>
</svg>
