<svg width="32" height="32" viewBox="0 0 32 32" fill="none" xmlns="http://www.w3.org/2000/svg">
<path d="M15.5757 8.30164L5.33376 19.1493V30.857C5.33376 31.1602 5.4274 31.4509 5.59408 31.6652C5.76077 31.8796 5.98685 32 6.22258 32L12.4477 31.9793C12.6826 31.9778 12.9075 31.8567 13.0733 31.6425C13.239 31.4283 13.332 31.1384 13.332 30.8363V23.9991C13.332 23.696 13.4257 23.4052 13.5924 23.1909C13.759 22.9765 13.9851 22.8561 14.2208 22.8561H17.7761C18.0119 22.8561 18.2379 22.9765 18.4046 23.1909C18.5713 23.4052 18.665 23.696 18.665 23.9991V30.8313C18.6646 30.9817 18.6873 31.1307 18.7318 31.2698C18.7763 31.4089 18.8417 31.5353 18.9243 31.6418C19.0069 31.7483 19.105 31.8328 19.213 31.8905C19.321 31.9482 19.4368 31.9779 19.5538 31.9779L25.7766 32C26.0124 32 26.2384 31.8796 26.4051 31.6652C26.5718 31.4509 26.6654 31.1602 26.6654 30.857V19.1414L16.4257 8.30164C16.3053 8.17686 16.1553 8.10881 16.0007 8.10881C15.8461 8.10881 15.6961 8.17686 15.5757 8.30164ZM31.7539 15.6746L27.1099 10.7519V0.857238C27.1099 0.629885 27.0396 0.411843 26.9146 0.251079C26.7896 0.0903161 26.62 0 26.4432 0H23.3324C23.1556 0 22.986 0.0903161 22.861 0.251079C22.736 0.411843 22.6658 0.629885 22.6658 0.857238V6.04425L17.6922 0.78223C17.215 0.277159 16.616 0.00100964 15.9979 0.00100964C15.3798 0.00100964 14.7809 0.277159 14.3036 0.78223L0.241925 15.6746C0.174423 15.7464 0.118576 15.8345 0.0775751 15.934C0.0365738 16.0335 0.0112218 16.1424 0.00296764 16.2546C-0.00528651 16.3667 0.00371897 16.4798 0.0294695 16.5874C0.0552201 16.6951 0.097211 16.7951 0.153043 16.8819L1.5696 19.0964C1.62528 19.1835 1.69377 19.2556 1.77114 19.3086C1.84851 19.3615 1.93325 19.3944 2.02051 19.4052C2.10776 19.416 2.19582 19.4046 2.27963 19.3716C2.36345 19.3386 2.44139 19.2846 2.50897 19.2129L15.5757 5.37274C15.6961 5.24796 15.8461 5.17991 16.0007 5.17991C16.1553 5.17991 16.3053 5.24796 16.4257 5.37274L29.493 19.2129C29.5605 19.2847 29.6383 19.3387 29.722 19.3718C29.8057 19.4049 29.8936 19.4165 29.9808 19.4058C30.068 19.3952 30.1527 19.3626 30.2301 19.3099C30.3075 19.2572 30.376 19.1854 30.4318 19.0986L31.8484 16.884C31.9042 16.7968 31.946 16.6962 31.9714 16.5881C31.9969 16.48 32.0054 16.3665 31.9967 16.2541C31.9879 16.1417 31.9619 16.0326 31.9203 15.9332C31.8786 15.8337 31.8221 15.7459 31.7539 15.6746Z" fill="#D4820A"/>
</svg>
