<svg width="32" height="33" viewBox="0 0 32 33" fill="none" xmlns="http://www.w3.org/2000/svg">
<rect x="0.5" y="0.5" width="31" height="32" rx="15.5" fill="#D4820A"/>
<path d="M6.98604 23.6818L13.952 18.9908C14.9051 19.9877 16.171 20.7124 17.632 20.9873C21.3081 21.6789 24.856 19.2924 25.5379 15.6676C26.2245 12.0397 23.7865 8.52701 20.1104 7.83541C16.4343 7.14381 12.8864 9.53028 12.2044 13.155C11.9088 14.7266 12.1983 16.2733 12.9209 17.5826L5.98856 22.2473L6.98604 23.6818ZM13.7444 13.4448C14.2688 10.6571 16.998 8.81976 19.8251 9.35165C22.6523 9.88354 24.5271 12.587 24.0027 15.3747C23.4782 18.1624 20.7491 19.9997 17.9219 19.4678C15.0948 18.9359 13.2192 16.2364 13.7444 13.4448Z" fill="#2D5A27" fill-opacity="0.7"/>
</svg>
